# xmcd CD database file
#
# Track frame offsets:
#	150
#	15704
#	34934
#	60800
#	78330
#	98102
#	116223
#	139172
#	164683
#	194110
#	213518
#
# Disc length: 3013 seconds
#
# Revision: 1
# Processed by: cddbd v1.4PL0 Copyright (c) Steve Scherf et al.
# Submitted via: CDex 1.40Beta9
#
DISCID=9c0bc30b
DTITLE=R. Carlos Nakai - Fourth World
DYEAR=2002
DGENRE=Native American
TTITLE0=Fourth World, Rainbow World
TTITLE1=Whippoorwill
TTITLE2=Comes the Dawn
TTITLE3=Sonoran Nights
TTITLE4=Shaman's Call
TTITLE5=Eye of the Eagle
TTITLE6=Garden of Dreams
TTITLE7=Into the Twilight
TTITLE8=Under the Beautiful Sky
TTITLE9=Little Dog
TTITLE10=Meditations on Dinetah
EXTD=YEAR: 2002 ID3G: 64
EXTT0=
EXTT1=
EXTT2=
EXTT3=
EXTT4=
EXTT5=
EXTT6=
EXTT7=
EXTT8=
EXTT9=
EXTT10=
PLAYORDER=
